<mxfile version="13.7.3" type="github" host="app.diagrams.net" modified="2020-09-19T13:08:30.757Z" agent="5.0 (Windows NT 10.0; Win64; x64) AppleWebKit/537.36 (KHTML, like Gecko) Chrome/70.0.3538.102 Safari/537.36 Edge/18.18363" etag="xGVQlGQQTU4m43FGKLCJ">
  <diagram id="C5RBs43oDa-KdzZeNtuy" name="Page-1">
    <mxGraphModel grid="1" shadow="0" math="0" pageHeight="1169" pageWidth="827" pageScale="1" page="1" fold="1" arrows="1" connect="1" tooltips="1" guides="1" gridSize="10" dy="792" dx="1422">
      <root>
        <mxCell id="WIyWlLk6GJQsqaUBKTNV-0" />
        <mxCell id="WIyWlLk6GJQsqaUBKTNV-1" parent="WIyWlLk6GJQsqaUBKTNV-0" />
        <mxCell id="zkfFHV4jXpPFQw0GAbJ--6" value="Circle" parent="WIyWlLk6GJQsqaUBKTNV-1" vertex="1" style="swimlane;fontStyle=0;align=center;verticalAlign=top;childLayout=stackLayout;horizontal=1;startSize=26;horizontalStack=0;resizeParent=1;resizeLast=0;collapsible=1;marginBottom=0;rounded=0;shadow=0;strokeWidth=1;">
          <mxGeometry as="geometry" height="138" width="160" y="360" x="120">
            <mxRectangle as="alternateBounds" height="26" width="160" y="380" x="130" />
          </mxGeometry>
        </mxCell>
        <mxCell id="zkfFHV4jXpPFQw0GAbJ--7" value="-Radius" parent="zkfFHV4jXpPFQw0GAbJ--6" vertex="1" style="text;align=left;verticalAlign=top;spacingLeft=4;spacingRight=4;overflow=hidden;rotatable=0;points=[[0,0.5],[1,0.5]];portConstraint=eastwest;">
          <mxGeometry as="geometry" height="26" width="160" y="26" />
        </mxCell>
        <mxCell id="zkfFHV4jXpPFQw0GAbJ--9" value="" parent="zkfFHV4jXpPFQw0GAbJ--6" vertex="1" style="line;html=1;strokeWidth=1;align=left;verticalAlign=middle;spacingTop=-1;spacingLeft=3;spacingRight=3;rotatable=0;labelPosition=right;points=[];portConstraint=eastwest;">
          <mxGeometry as="geometry" height="8" width="160" y="52" />
        </mxCell>
        <mxCell id="zkfFHV4jXpPFQw0GAbJ--11" value="- Circle(string, double, int)&#xa;- double calculatearea()" parent="zkfFHV4jXpPFQw0GAbJ--6" vertex="1" style="text;align=left;verticalAlign=top;spacingLeft=4;spacingRight=4;overflow=hidden;rotatable=0;points=[[0,0.5],[1,0.5]];portConstraint=eastwest;">
          <mxGeometry as="geometry" height="40" width="160" y="60" />
        </mxCell>
        <mxCell id="zkfFHV4jXpPFQw0GAbJ--13" value="Rectangle and Square" parent="WIyWlLk6GJQsqaUBKTNV-1" vertex="1" style="swimlane;fontStyle=0;align=center;verticalAlign=top;childLayout=stackLayout;horizontal=1;startSize=26;horizontalStack=0;resizeParent=1;resizeLast=0;collapsible=1;marginBottom=0;rounded=0;shadow=0;strokeWidth=1;">
          <mxGeometry as="geometry" height="158" width="160" y="360" x="329">
            <mxRectangle as="alternateBounds" height="26" width="170" y="380" x="340" />
          </mxGeometry>
        </mxCell>
        <mxCell id="zkfFHV4jXpPFQw0GAbJ--14" value="#width (double)&#xa;#length(double)" parent="zkfFHV4jXpPFQw0GAbJ--13" vertex="1" style="text;align=left;verticalAlign=top;spacingLeft=4;spacingRight=4;overflow=hidden;rotatable=0;points=[[0,0.5],[1,0.5]];portConstraint=eastwest;">
          <mxGeometry as="geometry" height="64" width="160" y="26" />
        </mxCell>
        <mxCell id="zkfFHV4jXpPFQw0GAbJ--15" value="" parent="zkfFHV4jXpPFQw0GAbJ--13" vertex="1" style="line;html=1;strokeWidth=1;align=left;verticalAlign=middle;spacingTop=-1;spacingLeft=3;spacingRight=3;rotatable=0;labelPosition=right;points=[];portConstraint=eastwest;">
          <mxGeometry as="geometry" height="8" width="160" y="90" />
        </mxCell>
        <mxCell id="bXdOoEnzCoBKNABFMknu-13" value="&lt;span style=&quot;font: 12px / 1.2 &amp;#34;helvetica&amp;#34; ; text-align: center ; color: rgb(0 , 0 , 0) ; text-transform: none ; text-indent: 0px ; letter-spacing: normal ; text-decoration: none ; word-spacing: 0px ; display: inline ; float: none ; overflow-wrap: normal ; background-color: rgb(248 , 249 , 250)&quot;&gt;-RectangleandSquare (string, double, double, double)&lt;/span&gt;&lt;br style=&quot;text-align: center ; color: rgb(0 , 0 , 0) ; text-transform: none ; text-indent: 0px ; letter-spacing: normal ; font-family: &amp;#34;helvetica&amp;#34; ; font-size: 12px ; font-style: normal ; font-variant: normal ; font-weight: 400 ; text-decoration: none ; word-spacing: 0px&quot;&gt;&lt;span style=&quot;font: 12px / 1.2 &amp;#34;helvetica&amp;#34; ; text-align: center ; color: rgb(0 , 0 , 0) ; text-transform: none ; text-indent: 0px ; letter-spacing: normal ; text-decoration: none ; word-spacing: 0px ; display: inline ; float: none ; overflow-wrap: normal ; background-color: rgb(248 , 249 , 250)&quot;&gt;- double calculatearea()&lt;/span&gt;" parent="zkfFHV4jXpPFQw0GAbJ--13" vertex="1" style="whiteSpace=wrap;html=1;">
          <mxGeometry as="geometry" height="60" width="160" y="98" />
        </mxCell>
        <mxCell id="bXdOoEnzCoBKNABFMknu-14" value="Square" parent="WIyWlLk6GJQsqaUBKTNV-1" vertex="1" style="swimlane;fontStyle=0;align=center;verticalAlign=top;childLayout=stackLayout;horizontal=1;startSize=26;horizontalStack=0;resizeParent=1;resizeLast=0;collapsible=1;marginBottom=0;rounded=0;shadow=0;strokeWidth=1;">
          <mxGeometry as="geometry" height="74" width="160" y="590" x="220">
            <mxRectangle as="alternateBounds" height="26" width="160" y="380" x="130" />
          </mxGeometry>
        </mxCell>
        <mxCell id="bXdOoEnzCoBKNABFMknu-16" value="" parent="bXdOoEnzCoBKNABFMknu-14" vertex="1" style="line;html=1;strokeWidth=1;align=left;verticalAlign=middle;spacingTop=-1;spacingLeft=3;spacingRight=3;rotatable=0;labelPosition=right;points=[];portConstraint=eastwest;">
          <mxGeometry as="geometry" height="8" width="160" y="26" />
        </mxCell>
        <mxCell id="bXdOoEnzCoBKNABFMknu-17" value="- Square(string, double, int)&#xa;- double calculatearea()" parent="bXdOoEnzCoBKNABFMknu-14" vertex="1" style="text;align=left;verticalAlign=top;spacingLeft=4;spacingRight=4;overflow=hidden;rotatable=0;points=[[0,0.5],[1,0.5]];portConstraint=eastwest;">
          <mxGeometry as="geometry" height="40" width="160" y="34" />
        </mxCell>
        <mxCell id="bXdOoEnzCoBKNABFMknu-18" value="Rectangle" parent="WIyWlLk6GJQsqaUBKTNV-1" vertex="1" style="swimlane;fontStyle=0;align=center;verticalAlign=top;childLayout=stackLayout;horizontal=1;startSize=26;horizontalStack=0;resizeParent=1;resizeLast=0;collapsible=1;marginBottom=0;rounded=0;shadow=0;strokeWidth=1;">
          <mxGeometry as="geometry" height="80" width="160" y="585" x="430">
            <mxRectangle as="alternateBounds" height="26" width="160" y="380" x="130" />
          </mxGeometry>
        </mxCell>
        <mxCell id="bXdOoEnzCoBKNABFMknu-20" value="" parent="bXdOoEnzCoBKNABFMknu-18" vertex="1" style="line;html=1;strokeWidth=1;align=left;verticalAlign=middle;spacingTop=-1;spacingLeft=3;spacingRight=3;rotatable=0;labelPosition=right;points=[];portConstraint=eastwest;">
          <mxGeometry as="geometry" height="8" width="160" y="26" />
        </mxCell>
        <mxCell id="bXdOoEnzCoBKNABFMknu-21" value="- Rectangle(string, double, int)&#xa;- double calculatearea()" parent="bXdOoEnzCoBKNABFMknu-18" vertex="1" style="text;align=left;verticalAlign=top;spacingLeft=4;spacingRight=4;overflow=hidden;rotatable=0;points=[[0,0.5],[1,0.5]];portConstraint=eastwest;">
          <mxGeometry as="geometry" height="40" width="160" y="34" />
        </mxCell>
        <mxCell id="bXdOoEnzCoBKNABFMknu-30" value="" parent="WIyWlLk6GJQsqaUBKTNV-1" style="endArrow=block;endSize=16;endFill=0;html=1;exitX=0.5;exitY=0;exitDx=0;exitDy=0;" edge="1" target="bXdOoEnzCoBKNABFMknu-13" source="bXdOoEnzCoBKNABFMknu-14">
          <mxGeometry as="geometry" width="160" relative="1">
            <mxPoint as="sourcePoint" y="690" x="10" />
            <mxPoint as="targetPoint" y="650" x="40" />
            <Array as="points">
              <mxPoint y="550" x="340" />
            </Array>
          </mxGeometry>
        </mxCell>
        <mxCell id="bXdOoEnzCoBKNABFMknu-32" value="" parent="WIyWlLk6GJQsqaUBKTNV-1" style="endArrow=block;endSize=16;endFill=0;html=1;entryX=0.75;entryY=1;entryDx=0;entryDy=0;exitX=0.25;exitY=0;exitDx=0;exitDy=0;" edge="1" source="bXdOoEnzCoBKNABFMknu-18">
          <mxGeometry as="geometry" width="160" relative="1">
            <mxPoint as="sourcePoint" y="580" x="460" />
            <mxPoint as="targetPoint" y="518" x="430" />
          </mxGeometry>
        </mxCell>
        <mxCell id="bXdOoEnzCoBKNABFMknu-37" value="Sphere" parent="WIyWlLk6GJQsqaUBKTNV-1" vertex="1" style="swimlane;fontStyle=0;align=center;verticalAlign=top;childLayout=stackLayout;horizontal=1;startSize=26;horizontalStack=0;resizeParent=1;resizeLast=0;collapsible=1;marginBottom=0;rounded=0;shadow=0;strokeWidth=1;">
          <mxGeometry as="geometry" height="74" width="160" y="590" x="40">
            <mxRectangle as="alternateBounds" height="26" width="160" y="380" x="130" />
          </mxGeometry>
        </mxCell>
        <mxCell id="bXdOoEnzCoBKNABFMknu-38" value="" parent="bXdOoEnzCoBKNABFMknu-37" vertex="1" style="line;html=1;strokeWidth=1;align=left;verticalAlign=middle;spacingTop=-1;spacingLeft=3;spacingRight=3;rotatable=0;labelPosition=right;points=[];portConstraint=eastwest;">
          <mxGeometry as="geometry" height="8" width="160" y="26" />
        </mxCell>
        <mxCell id="bXdOoEnzCoBKNABFMknu-39" value="- Sphere(string, double, int)&#xa;- double calculatearea()" parent="bXdOoEnzCoBKNABFMknu-37" vertex="1" style="text;align=left;verticalAlign=top;spacingLeft=4;spacingRight=4;overflow=hidden;rotatable=0;points=[[0,0.5],[1,0.5]];portConstraint=eastwest;">
          <mxGeometry as="geometry" height="40" width="160" y="34" />
        </mxCell>
        <mxCell id="bXdOoEnzCoBKNABFMknu-40" value="" parent="WIyWlLk6GJQsqaUBKTNV-1" style="endArrow=block;endSize=16;endFill=0;html=1;entryX=0.5;entryY=1;entryDx=0;entryDy=0;exitX=0.5;exitY=0;exitDx=0;exitDy=0;" edge="1" target="zkfFHV4jXpPFQw0GAbJ--6" source="bXdOoEnzCoBKNABFMknu-37">
          <mxGeometry as="geometry" width="160" relative="1">
            <mxPoint as="sourcePoint" y="530" x="-120" />
            <mxPoint as="targetPoint" y="530" x="40" />
          </mxGeometry>
        </mxCell>
      </root>
    </mxGraphModel>
  </diagram>
</mxfile>
